<svg width="24" height="19" viewBox="0 0 24 19" fill="none" xmlns="http://www.w3.org/2000/svg">
<g clip-path="url(#clip0_1038_9517)">
<mask id="mask0_1038_9517" style="mask-type:luminance" maskUnits="userSpaceOnUse" x="0" y="0" width="24" height="19">
<path d="M0 0.388672H24V18.3887H0V0.388672Z" fill="white"/>
</mask>
<g mask="url(#mask0_1038_9517)">
<path d="M0 0.388672H24V18.3887H0V0.388672Z" fill="white"/>
<path fill-rule="evenodd" clip-rule="evenodd" d="M0 0.388672V18.3887H24V0.388672H0Z" fill="#2E42A5"/>
<mask id="mask1_1038_9517" style="mask-type:luminance" maskUnits="userSpaceOnUse" x="0" y="0" width="24" height="19">
<path fill-rule="evenodd" clip-rule="evenodd" d="M0 0.388672V18.3887H24V0.388672H0Z" fill="white"/>
</mask>
<g mask="url(#mask1_1038_9517)">
<path d="M-2.67224 17.102L2.60926 19.3362L24.1193 2.81673L26.9055 -0.502773L21.258 -1.24902L12.4845 5.86923L5.42251 10.6662L-2.67224 17.102Z" fill="white"/>
<path d="M-1.94995 18.6677L0.741799 19.9637L25.905 -0.810547H22.1273L-1.9492 18.667L-1.94995 18.6677Z" fill="#F50100"/>
<path d="M26.6724 17.102L21.3909 19.3362L-0.119145 2.81673L-2.9054 -0.502773L2.7421 -1.24902L11.5156 5.86923L18.5776 10.6662L26.6724 17.102Z" fill="white"/>
<path d="M26.4923 18.2258L23.8013 19.5218L13.0868 10.6268L9.9098 9.63379L-3.17395 -0.491211H0.60455L13.68 9.39379L17.1533 10.5848L26.4923 18.2258Z" fill="#F50100"/>
<path fill-rule="evenodd" clip-rule="evenodd" d="M14.8335 -1.11133H9.1665V6.38867H-1.479V12.3887H9.1665V19.8887H14.8335V12.3887H25.521V6.38867H14.8335V-1.11133Z" fill="#F50100"/>
<mask id="mask2_1038_9517" style="mask-type:luminance" maskUnits="userSpaceOnUse" x="-2" y="-2" width="28" height="22">
<path fill-rule="evenodd" clip-rule="evenodd" d="M14.8335 -1.11133H9.1665V6.38867H-1.479V12.3887H9.1665V19.8887H14.8335V12.3887H25.521V6.38867H14.8335V-1.11133Z" fill="white"/>
</mask>
<g mask="url(#mask2_1038_9517)">
<path d="M9.1665 -1.11133V-2.61133H7.6665V-1.11133H9.1665ZM14.8335 -1.11133H16.3335V-2.61133H14.8335V-1.11133ZM9.1665 6.38867V7.88867H10.6665V6.38867H9.1665ZM-1.479 6.38867V4.88867H-2.979V6.38867H-1.479ZM-1.479 12.3887H-2.979V13.8887H-1.479V12.3887ZM9.1665 12.3887H10.6665V10.8887H9.1665V12.3887ZM9.1665 19.8887H7.6665V21.3887H9.1665V19.8887ZM14.8335 19.8887V21.3887H16.3335V19.8887H14.8335ZM14.8335 12.3887V10.8887H13.3335V12.3887H14.8335ZM25.521 12.3887V13.8887H27.021V12.3887H25.521ZM25.521 6.38867H27.021V4.88867H25.521V6.38867ZM14.8335 6.38867H13.3335V7.88867H14.8335V6.38867ZM9.1665 0.388672H14.8335V-2.61133H9.1665V0.388672ZM10.6665 6.38867V-1.11133H7.6665V6.38867H10.6665ZM-1.479 7.88867H9.1665V4.88867H-1.479V7.88867ZM0.0209961 12.3887V6.38867H-2.979V12.3887H0.0209961ZM9.1665 10.8887H-1.479V13.8887H9.1665V10.8887ZM10.6665 19.8887V12.3887H7.6665V19.8887H10.6665ZM14.8335 18.3887H9.1665V21.3887H14.8335V18.3887ZM13.3335 12.3887V19.8887H16.3335V12.3887H13.3335ZM25.521 10.8887H14.8335V13.8887H25.521V10.8887ZM24.021 6.38867V12.3887H27.021V6.38867H24.021ZM14.8335 7.88867H25.521V4.88867H14.8335V7.88867ZM13.3335 -1.11133V6.38867H16.3335V-1.11133H13.3335Z" fill="white"/>
</g>
</g>
</g>
</g>
<defs>
<clipPath id="clip0_1038_9517">
<rect y="0.388672" width="24" height="18" rx="3" fill="white"/>
</clipPath>
</defs>
</svg>
