<svg width="23" height="21" viewBox="0 0 23 21" fill="none" xmlns="http://www.w3.org/2000/svg">
<path d="M12.8325 0.00973655C7.17808 -0.145789 2.54565 4.39777 2.54565 10.0078H0.557151C0.0572493 10.0078 -0.187147 10.6077 0.168339 10.952L3.26773 14.0625C3.48991 14.2847 3.83429 14.2847 4.05647 14.0625L7.15586 10.952C7.23263 10.8737 7.28449 10.7744 7.30492 10.6667C7.32535 10.559 7.31343 10.4476 7.27067 10.3466C7.2279 10.2456 7.1562 10.1596 7.0646 10.0993C6.973 10.039 6.8656 10.0071 6.75594 10.0078H4.76744C4.76744 5.67529 8.30008 2.17598 12.6548 2.23152C16.7873 2.28707 20.2644 5.76416 20.3199 9.89669C20.3755 14.2403 16.8762 17.784 12.5437 17.784C10.7552 17.784 9.09992 17.173 7.78907 16.1399C7.57629 15.9723 7.30933 15.8887 7.03896 15.9051C6.76858 15.9215 6.51367 16.0367 6.32269 16.2288C5.85611 16.6954 5.88944 17.4841 6.41156 17.884C8.15691 19.2643 10.3185 20.0122 12.5437 20.0058C18.1537 20.0058 22.6973 15.3734 22.5417 9.71895C22.3973 4.50886 18.0426 0.154153 12.8325 0.00973655ZM12.266 5.5642C11.8105 5.5642 11.4328 5.94191 11.4328 6.39737V10.4855C11.4328 10.8743 11.6439 11.2409 11.9771 11.4408L15.4431 13.496C15.843 13.7293 16.3541 13.596 16.5873 13.2072C16.8206 12.8072 16.6873 12.2962 16.2985 12.0629L13.0991 10.1633V6.38626C13.0991 5.94191 12.7214 5.5642 12.266 5.5642Z" fill="#1CB666"/>
</svg>
