<svg width="24" height="25" viewBox="0 0 24 25" fill="none" xmlns="http://www.w3.org/2000/svg">
<path d="M14 20.0059H4V17.0059C4 14.3059 9.3 13.0059 12 13.0059C13.5 13.0059 15.9 13.4059 17.7 14.3059C16.9 14.6059 16.3 15.0059 15.7 15.5059C14.6 15.1059 13.3 14.9059 12 14.9059C9 14.9059 5.9 16.4059 5.9 17.0059V18.1059H14.2C14.1 18.5059 14 19.0059 14 19.5059V20.0059ZM23 19.5059C23 21.4059 21.4 23.0059 19.5 23.0059C17.6 23.0059 16 21.4059 16 19.5059C16 17.6059 17.6 16.0059 19.5 16.0059C21.4 16.0059 23 17.6059 23 19.5059ZM12 6.00586C13.1 6.00586 14 6.90586 14 8.00586C14 9.10586 13.1 10.0059 12 10.0059C10.9 10.0059 10 9.10586 10 8.00586C10 6.90586 10.9 6.00586 12 6.00586ZM12 4.00586C9.8 4.00586 8 5.80586 8 8.00586C8 10.2059 9.8 12.0059 12 12.0059C14.2 12.0059 16 10.2059 16 8.00586C16 5.80586 14.2 4.00586 12 4.00586Z" fill="#1CB666"/>
</svg>
