<svg width="17" height="17" viewBox="0 0 17 17" fill="none" xmlns="http://www.w3.org/2000/svg">
<path d="M3.39576 2.50006L3.39576 14.5001C3.39614 14.6216 3.42965 14.7406 3.49268 14.8445C3.55571 14.9484 3.64587 15.0331 3.75347 15.0895C3.86106 15.146 3.982 15.172 4.10329 15.1648C4.22457 15.1576 4.34159 15.1175 4.44176 15.0487L13.1084 9.04872C13.4678 8.80006 13.4678 8.20139 13.1084 7.95206L4.44176 1.95206C4.3418 1.88261 4.22472 1.84188 4.10323 1.8343C3.98175 1.82672 3.86051 1.85258 3.75269 1.90907C3.64487 1.96555 3.55459 2.05051 3.49167 2.1547C3.42874 2.25889 3.39557 2.37834 3.39576 2.50006Z" fill="white"/>
</svg>
