<svg width="25" height="25" viewBox="0 0 25 25" fill="none" xmlns="http://www.w3.org/2000/svg">
<path d="M18.5 10.5002C18.5 10.235 18.3947 9.98062 18.2071 9.79308C18.0196 9.60554 17.7652 9.50019 17.5 9.50019H5.91002L8.21002 7.21019C8.39832 7.02188 8.50411 6.76649 8.50411 6.50019C8.50411 6.23388 8.39832 5.97849 8.21002 5.79019C8.02171 5.60188 7.76632 5.49609 7.50002 5.49609C7.23372 5.49609 6.97832 5.60188 6.79002 5.79019L2.79002 9.79019C2.65126 9.93081 2.55726 10.1094 2.51989 10.3034C2.48252 10.4974 2.50344 10.6981 2.58002 10.8802C2.65504 11.0628 2.78244 11.2191 2.94616 11.3295C3.10988 11.4398 3.30259 11.4992 3.50002 11.5002H17.5C17.7652 11.5002 18.0196 11.3948 18.2071 11.2073C18.3947 11.0198 18.5 10.7654 18.5 10.5002ZM22.42 14.1202C22.345 13.9376 22.2176 13.7812 22.0539 13.6709C21.8902 13.5606 21.6974 13.5012 21.5 13.5002H7.50002C7.2348 13.5002 6.98045 13.6055 6.79291 13.7931C6.60537 13.9806 6.50002 14.235 6.50002 14.5002C6.50002 14.7654 6.60537 15.0198 6.79291 15.2073C6.98045 15.3948 7.2348 15.5002 7.50002 15.5002H19.09L16.79 17.7902C16.6963 17.8831 16.6219 17.9937 16.5711 18.1156C16.5204 18.2375 16.4942 18.3682 16.4942 18.5002C16.4942 18.6322 16.5204 18.7629 16.5711 18.8848C16.6219 19.0066 16.6963 19.1172 16.79 19.2102C16.883 19.3039 16.9936 19.3783 17.1154 19.4291C17.2373 19.4798 17.368 19.506 17.5 19.506C17.632 19.506 17.7627 19.4798 17.8846 19.4291C18.0065 19.3783 18.1171 19.3039 18.21 19.2102L22.21 15.2102C22.3488 15.0696 22.4428 14.891 22.4801 14.697C22.5175 14.503 22.4966 14.3023 22.42 14.1202Z" fill="black"/>
</svg>
