<svg width="25" height="25" viewBox="0 0 25 25" fill="none" xmlns="http://www.w3.org/2000/svg">
<path d="M18.4999 10.5002C18.4999 10.235 18.3945 9.98062 18.207 9.79308C18.0195 9.60554 17.7651 9.50019 17.4999 9.50019H5.9099L8.2099 7.21019C8.3982 7.02188 8.50399 6.76649 8.50399 6.50019C8.50399 6.23388 8.3982 5.97849 8.2099 5.79019C8.02159 5.60188 7.7662 5.49609 7.4999 5.49609C7.23359 5.49609 6.9782 5.60188 6.7899 5.79019L2.7899 9.79019C2.65114 9.93081 2.55714 10.1094 2.51977 10.3034C2.48239 10.4974 2.50332 10.6981 2.5799 10.8802C2.65492 11.0628 2.78231 11.2191 2.94603 11.3295C3.10975 11.4398 3.30247 11.4992 3.4999 11.5002H17.4999C17.7651 11.5002 18.0195 11.3948 18.207 11.2073C18.3945 11.0198 18.4999 10.7654 18.4999 10.5002ZM22.4199 14.1202C22.3449 13.9376 22.2175 13.7812 22.0538 13.6709C21.89 13.5606 21.6973 13.5012 21.4999 13.5002H7.4999C7.23468 13.5002 6.98033 13.6055 6.79279 13.7931C6.60525 13.9806 6.4999 14.235 6.4999 14.5002C6.4999 14.7654 6.60525 15.0198 6.79279 15.2073C6.98033 15.3948 7.23468 15.5002 7.4999 15.5002H19.0899L16.7899 17.7902C16.6962 17.8831 16.6218 17.9937 16.571 18.1156C16.5202 18.2375 16.4941 18.3682 16.4941 18.5002C16.4941 18.6322 16.5202 18.7629 16.571 18.8848C16.6218 19.0066 16.6962 19.1172 16.7899 19.2102C16.8829 19.3039 16.9935 19.3783 17.1153 19.4291C17.2372 19.4798 17.3679 19.506 17.4999 19.506C17.6319 19.506 17.7626 19.4798 17.8845 19.4291C18.0063 19.3783 18.1169 19.3039 18.2099 19.2102L22.2099 15.2102C22.3487 15.0696 22.4426 14.891 22.48 14.697C22.5174 14.503 22.4965 14.3023 22.4199 14.1202Z" fill="black"/>
</svg>
