<svg width="30" height="30" viewBox="0 0 30 30" fill="none" xmlns="http://www.w3.org/2000/svg">
<path d="M23.75 11.25C23.75 10.1009 23.5237 8.96312 23.0839 7.90152C22.6442 6.83992 21.9997 5.87533 21.1872 5.06282C20.3747 4.2503 19.4101 3.60578 18.3485 3.16605C17.2869 2.72633 16.1491 2.5 15 2.5C13.8509 2.5 12.7131 2.72633 11.6515 3.16605C10.5899 3.60578 9.62533 4.2503 8.81282 5.06282C8.0003 5.87533 7.35578 6.83992 6.91605 7.90152C6.47633 8.96312 6.25 10.1009 6.25 11.25C6.25 12.9838 6.76125 14.5963 7.63125 15.9563H7.62125L15 27.5L22.3787 15.9563H22.37C23.2711 14.552 23.7501 12.9185 23.75 11.25ZM15 15C14.0054 15 13.0516 14.6049 12.3483 13.9017C11.6451 13.1984 11.25 12.2446 11.25 11.25C11.25 10.2554 11.6451 9.30161 12.3483 8.59835C13.0516 7.89509 14.0054 7.5 15 7.5C15.9946 7.5 16.9484 7.89509 17.6517 8.59835C18.3549 9.30161 18.75 10.2554 18.75 11.25C18.75 12.2446 18.3549 13.1984 17.6517 13.9017C16.9484 14.6049 15.9946 15 15 15Z" fill="#1CB666"/>
</svg>
