<svg width="30" height="30" viewBox="0 0 30 30" fill="none" xmlns="http://www.w3.org/2000/svg">
<path fill-rule="evenodd" clip-rule="evenodd" d="M15.3132 10.625C14.107 10.625 13.1257 11.6063 13.1257 12.8138C13.1257 14.02 14.107 15 15.3132 15C16.5195 15 17.5007 14.02 17.5007 12.8138C17.5007 11.6063 16.5195 10.625 15.3132 10.625ZM15.3132 16.875C13.0732 16.875 11.2507 15.0538 11.2507 12.8137C11.2507 10.5725 13.0732 8.75 15.3132 8.75C17.5532 8.75 19.3757 10.5725 19.3757 12.8137C19.3757 15.0538 17.5532 16.875 15.3132 16.875Z" fill="#1CB666"/>
<mask id="mask0_580_3687" style="mask-type:luminance" maskUnits="userSpaceOnUse" x="5" y="2" width="21" height="25">
<path fill-rule="evenodd" clip-rule="evenodd" d="M5 2.5H25.6244V26.875H5V2.5Z" fill="white"/>
</mask>
<g mask="url(#mask0_580_3687)">
<path fill-rule="evenodd" clip-rule="evenodd" d="M15.3118 4.375C10.6593 4.375 6.87427 8.19625 6.87427 12.8913C6.87427 18.865 13.9043 24.685 15.3118 24.995C16.7193 24.6838 23.7493 18.8638 23.7493 12.8913C23.7493 8.19625 19.9643 4.375 15.3118 4.375ZM15.3118 26.875C13.0693 26.875 4.99927 19.935 4.99927 12.8912C4.99927 7.16125 9.62552 2.5 15.3118 2.5C20.998 2.5 25.6243 7.16125 25.6243 12.8912C25.6243 19.935 17.5543 26.875 15.3118 26.875Z" fill="#1CB666"/>
</g>
</svg>
