<svg width="25" height="25" viewBox="0 0 25 25" fill="none" xmlns="http://www.w3.org/2000/svg">
<path d="M12.5 2.8999C7.22002 2.8999 2.90002 7.2199 2.90002 12.4999C2.90002 17.7799 7.22002 22.0999 12.5 22.0999C17.78 22.0999 22.1 17.7799 22.1 12.4999C22.1 7.2199 17.78 2.8999 12.5 2.8999ZM12.5 20.7799C7.94002 20.7799 4.22002 17.0599 4.22002 12.4999C4.22002 7.9399 7.94002 4.2199 12.5 4.2199C17.06 4.2199 20.78 7.9399 20.78 12.4999C20.78 17.0599 17.06 20.7799 12.5 20.7799Z" fill="#888D8E"/>
<path d="M11.5678 17.6829C10.8851 17.6829 10.3891 17.5602 10.0798 17.3149C9.77045 17.0589 9.61578 16.6856 9.61578 16.1949C9.61578 15.7149 9.74378 15.3576 9.99978 15.1229C10.2664 14.8882 10.6611 14.7709 11.1838 14.7709H11.3918L10.7678 15.3789V11.6989C10.7678 11.4216 10.6984 11.2189 10.5598 11.0909C10.4211 10.9522 10.2238 10.8509 9.96778 10.7869V9.61891C9.96778 9.05358 10.1064 8.62691 10.3838 8.33891C10.6611 8.04025 11.0718 7.89091 11.6158 7.89091H13.5198V9.93891H12.5278C12.3358 9.93891 12.2398 10.0456 12.2398 10.2589V10.4189C12.6771 10.5469 12.9918 10.7122 13.1838 10.9149C13.3864 11.1069 13.4878 11.3896 13.4878 11.7629V16.5949C13.4878 17.3202 12.8478 17.6829 11.5678 17.6829ZM11.2798 16.7869V15.6669C10.9384 15.6669 10.7678 15.8536 10.7678 16.2269C10.7678 16.6002 10.9384 16.7869 11.2798 16.7869ZM9.45578 13.5869V12.3389H14.4798V13.5869H9.45578Z" fill="#888D8E"/>
</svg>
