<svg width="24" height="25" viewBox="0 0 24 25" fill="none" xmlns="http://www.w3.org/2000/svg">
<path d="M8.68727 20.7285C7.1386 20.2661 5.73604 19.4107 4.61611 18.2454C4.97644 17.818 5.20106 17.2928 5.26123 16.7371C5.3214 16.1813 5.21438 15.6202 4.95386 15.1256C4.69334 14.631 4.29118 14.2254 3.79882 13.9607C3.30647 13.696 2.74633 13.5841 2.19008 13.6396C2.06335 13.0188 1.99967 12.3869 2 11.7533C2 10.7749 2.14981 9.83104 2.42884 8.94434H2.46817C2.94558 8.94449 3.41516 8.82296 3.83255 8.59123C4.24995 8.35949 4.6014 8.02519 4.85371 7.6199C5.10603 7.2146 5.25088 6.75169 5.27459 6.27487C5.2983 5.79804 5.20009 5.32304 4.98923 4.89471C6.08689 3.87263 7.41435 3.12965 8.85955 2.72852C9.09475 3.19031 9.45311 3.57805 9.89499 3.84881C10.3369 4.11958 10.8451 4.26282 11.3633 4.26269C11.8815 4.26282 12.3897 4.11958 12.8316 3.84881C13.2735 3.57805 13.6318 3.19031 13.867 2.72852C15.3122 3.12965 16.6397 3.87263 17.7374 4.89471C17.525 5.32604 17.4268 5.80466 17.4524 6.28477C17.4779 6.76487 17.6262 7.23039 17.8831 7.63677C18.1401 8.04314 18.497 8.37677 18.9198 8.60571C19.3426 8.83465 19.817 8.95125 20.2978 8.94434C20.5828 9.85338 20.7275 10.8006 20.7266 11.7533C20.7266 12.3994 20.661 13.0305 20.5365 13.64C19.9803 13.5846 19.4201 13.6964 18.9278 13.9612C18.4354 14.2259 18.0333 14.6315 17.7727 15.1261C17.5122 15.6207 17.4052 16.1818 17.4654 16.7375C17.5255 17.2933 17.7502 17.8185 18.1105 18.2458C16.9905 19.411 15.5879 20.2663 14.0393 20.7285C13.8575 20.1617 13.5003 19.6673 13.0194 19.3165C12.5385 18.9657 11.9586 18.7767 11.3633 18.7767C10.768 18.7767 10.1881 18.9657 9.70719 19.3165C9.22626 19.6673 8.86912 20.1617 8.68727 20.7285Z" stroke="#1CB666" stroke-width="1.5" stroke-linejoin="round"/>
<path d="M11.3633 15.0309C11.7937 15.0309 12.2198 14.9461 12.6174 14.7814C13.015 14.6167 13.3763 14.3753 13.6806 14.071C13.9849 13.7667 14.2263 13.4054 14.391 13.0078C14.5557 12.6102 14.6405 12.1841 14.6405 11.7537C14.6405 11.3234 14.5557 10.8972 14.391 10.4996C14.2263 10.102 13.9849 9.74073 13.6806 9.43642C13.3763 9.13211 13.015 8.89071 12.6174 8.72602C12.2198 8.56133 11.7937 8.47656 11.3633 8.47656C10.4941 8.47656 9.66059 8.82183 9.04601 9.43642C8.43142 10.051 8.08615 10.8846 8.08615 11.7537C8.08615 12.6229 8.43142 13.4564 9.04601 14.071C9.66059 14.6856 10.4941 15.0309 11.3633 15.0309Z" stroke="#1CB666" stroke-width="1.5" stroke-linejoin="round"/>
</svg>
