<svg width="16" height="16" viewBox="0 0 16 16" fill="none" xmlns="http://www.w3.org/2000/svg">
<path fill-rule="evenodd" clip-rule="evenodd" d="M8.00004 1.33325C6.85604 1.33325 5.93604 2.25325 4.09471 4.09459C2.25404 5.93592 1.33337 6.85592 1.33337 7.99992C1.33337 9.14392 2.25337 10.0639 4.09471 11.9053C5.93604 13.7459 6.85604 14.6666 8.00004 14.6666C9.14404 14.6666 10.064 13.7466 11.9054 11.9053C13.746 10.0639 14.6667 9.14392 14.6667 7.99992C14.6667 6.85592 13.7467 5.93592 11.9054 4.09459C10.064 2.25392 9.14404 1.33325 8.00004 1.33325Z" fill="#1CB666"/>
<path fill-rule="evenodd" clip-rule="evenodd" d="M8.52404 5.65792C8.61475 5.56122 8.74016 5.50451 8.87268 5.50026C9.0052 5.49601 9.13398 5.54457 9.23071 5.63526L11.0087 7.30192C11.0586 7.34869 11.0983 7.40517 11.1255 7.46789C11.1526 7.53062 11.1666 7.59824 11.1666 7.66659C11.1666 7.73494 11.1526 7.80256 11.1255 7.86529C11.0983 7.92801 11.0586 7.98449 11.0087 8.03126L9.23071 9.69792C9.1336 9.78634 9.0056 9.83301 8.87437 9.82783C8.74314 9.82265 8.61921 9.76605 8.52937 9.67026C8.43953 9.57446 8.39099 9.44716 8.39423 9.31587C8.39747 9.18458 8.45224 9.05983 8.54671 8.96859L9.40204 8.16659H7.11137C6.88871 8.16659 6.54804 8.23326 6.28004 8.41459C6.03804 8.57792 5.83337 8.84326 5.83337 9.33326C5.83337 9.46587 5.7807 9.59304 5.68693 9.68681C5.59316 9.78058 5.46598 9.83326 5.33337 9.83326C5.20077 9.83326 5.07359 9.78058 4.97982 9.68681C4.88605 9.59304 4.83337 9.46587 4.83337 9.33326C4.83337 8.48992 5.22137 7.92192 5.72004 7.58526C6.19271 7.26659 6.74137 7.16659 7.11137 7.16659H9.40204L8.54671 6.36459C8.45 6.27388 8.39329 6.14847 8.38904 6.01595C8.38479 5.88343 8.43335 5.75465 8.52404 5.65792Z" fill="black"/>
</svg>
