<svg width="24" height="25" viewBox="0 0 24 25" fill="none" xmlns="http://www.w3.org/2000/svg">
<path d="M12 1.50586C9.9233 1.50586 7.89323 2.12167 6.16652 3.27543C4.4398 4.42918 3.09399 6.06906 2.29927 7.98768C1.50455 9.90631 1.29661 12.0175 1.70176 14.0543C2.1069 16.0911 3.10693 17.962 4.57538 19.4305C6.04383 20.8989 7.91476 21.899 9.95156 22.3041C11.9884 22.7092 14.0996 22.5013 16.0182 21.7066C17.9368 20.9119 19.5767 19.5661 20.7304 17.8393C21.8842 16.1126 22.5 14.0826 22.5 12.0059C22.5 9.22109 21.3938 6.55037 19.4246 4.58124C17.4555 2.61211 14.7848 1.50586 12 1.50586ZM12 21.0059C10.22 21.0059 8.47992 20.478 6.99987 19.4891C5.51983 18.5002 4.36628 17.0945 3.68509 15.45C3.0039 13.8055 2.82567 11.9959 3.17294 10.25C3.5202 8.50422 4.37737 6.90057 5.63604 5.6419C6.89472 4.38323 8.49836 3.52606 10.2442 3.17879C11.99 2.83152 13.7996 3.00975 15.4442 3.69094C17.0887 4.37213 18.4943 5.52569 19.4832 7.00573C20.4722 8.48577 21 10.2258 21 12.0059C21 14.3928 20.0518 16.682 18.364 18.3698C16.6761 20.0576 14.387 21.0059 12 21.0059Z" fill="#1CB666"/>
<path d="M12 18.7559C12.6213 18.7559 13.125 18.2522 13.125 17.6309C13.125 17.0095 12.6213 16.5059 12 16.5059C11.3787 16.5059 10.875 17.0095 10.875 17.6309C10.875 18.2522 11.3787 18.7559 12 18.7559Z" fill="#1CB666"/>
<path d="M12.75 6.00587H11.625C11.1815 6.00488 10.7422 6.0915 10.3323 6.26076C9.92236 6.43002 9.54991 6.67858 9.23632 6.99218C8.92272 7.30577 8.67416 7.67822 8.5049 8.08814C8.33564 8.49806 8.24902 8.93738 8.25001 9.38087V9.75587H9.75001V9.38087C9.75001 8.88359 9.94755 8.40667 10.2992 8.05504C10.6508 7.70341 11.1277 7.50587 11.625 7.50587H12.75C13.2473 7.50587 13.7242 7.70341 14.0758 8.05504C14.4275 8.40667 14.625 8.88359 14.625 9.38087C14.625 9.87815 14.4275 10.3551 14.0758 10.7067C13.7242 11.0583 13.2473 11.2559 12.75 11.2559H11.25V14.6309H12.75V12.7559C13.6451 12.7559 14.5036 12.4003 15.1365 11.7674C15.7694 11.1344 16.125 10.276 16.125 9.38087C16.125 8.48576 15.7694 7.62732 15.1365 6.99438C14.5036 6.36145 13.6451 6.00587 12.75 6.00587Z" fill="#1CB666"/>
</svg>
