<svg width="18" height="18" viewBox="0 0 18 18" fill="none" xmlns="http://www.w3.org/2000/svg">
<g clip-path="url(#clip0_580_3700)">
<path d="M12.5926 4.16667C12.5926 6.0625 10.3364 9.44098 9.34568 10.8333C9.10802 11.1667 8.66667 11.1667 8.4321 10.8333C7.44136 9.44098 5.18519 6.0625 5.18519 4.16667C5.18519 1.86458 6.84259 0 8.88889 0C10.9352 0 12.5926 1.86458 12.5926 4.16667ZM12.8395 6.95834C12.9475 6.71875 13.0463 6.47917 13.1358 6.24306C13.1512 6.20139 13.1667 6.15625 13.1821 6.11459L16.7623 4.50347C17.25 4.28472 17.7778 4.6875 17.7778 5.27778V14.6806C17.7778 15.0208 17.5926 15.3264 17.3117 15.4549L12.8395 17.4653V6.95834ZM4.24691 4.80209C4.32099 5.29167 4.46914 5.78473 4.64198 6.24306C4.73148 6.47917 4.83025 6.71875 4.93827 6.95834V15.6875L1.01543 17.4549C0.527778 17.6736 0 17.2708 0 16.6806V7.27778C0 6.9375 0.185185 6.63195 0.466049 6.50348L4.25 4.80209H4.24691ZM10.1173 11.5278C10.5463 10.9236 11.2191 9.94098 11.8519 8.85417V17.5104L5.92593 15.6042V8.85417C6.55864 9.94098 7.23148 10.9236 7.66049 11.5278C8.29321 12.4167 9.48457 12.4167 10.1173 11.5278ZM8.88889 5.27778C9.21632 5.27778 9.53033 5.13145 9.76186 4.87098C9.99339 4.61052 10.1235 4.25725 10.1235 3.88889C10.1235 3.52053 9.99339 3.16727 9.76186 2.9068C9.53033 2.64633 9.21632 2.5 8.88889 2.5C8.56146 2.5 8.24744 2.64633 8.01592 2.9068C7.78439 3.16727 7.65432 3.52053 7.65432 3.88889C7.65432 4.25725 7.78439 4.61052 8.01592 4.87098C8.24744 5.13145 8.56146 5.27778 8.88889 5.27778Z" fill="#1CB666"/>
</g>
<defs>
<clipPath id="clip0_580_3700">
<rect width="17.7778" height="17.7778" fill="white"/>
</clipPath>
</defs>
</svg>
